<svg width="28" height="28" viewBox="0 0 28 28" xmlns="http://www.w3.org/2000/svg">
<g clip-path="url(#clip0)">
<path d="M26.7924 19.0355C27.3662 18.3036 27.6414 17.519 27.6063 16.711C27.5711 15.821 27.173 15.1242 26.8451 14.6968C27.2257 13.7482 27.3721 12.2551 26.1015 11.0958C25.1705 10.2468 23.5895 9.86617 21.3997 9.97156C19.8597 10.0418 18.5715 10.3287 18.5189 10.3404H18.513C18.2202 10.3931 17.9099 10.4575 17.5937 10.5278C17.5703 10.1531 17.6347 9.22208 18.3256 7.12589C19.1454 4.63153 19.0985 2.72271 18.1734 1.44626C17.2014 0.105395 15.6498 0 15.193 0C14.7539 0 14.3499 0.181514 14.063 0.515266C13.413 1.2706 13.4892 2.66416 13.5711 3.30824C12.7982 5.38101 10.6318 10.4634 8.79907 11.8745C8.76394 11.898 8.73466 11.9272 8.70538 11.9565C8.1667 12.5245 7.80367 13.1393 7.55774 13.678C7.21228 13.4906 6.81998 13.3852 6.3984 13.3852H2.82667C1.47995 13.3852 0.390869 14.4801 0.390869 15.821V25.3358C0.390869 26.6826 1.48581 27.7716 2.82667 27.7716H6.3984C6.91952 27.7716 7.40551 27.6077 7.80367 27.3266L9.17966 27.4906C9.39045 27.5199 13.1378 27.9941 16.9848 27.918C17.6815 27.9707 18.3373 28 18.9463 28C19.9944 28 20.9078 27.918 21.669 27.7541C23.4607 27.3735 24.6845 26.6123 25.3051 25.4939C25.7794 24.6391 25.7794 23.79 25.7033 23.2514C26.8685 22.1974 27.0734 21.0322 27.0324 20.2125C27.009 19.7382 26.9036 19.3342 26.7924 19.0355ZM2.82667 26.1907C2.35239 26.1907 1.9718 25.8043 1.9718 25.3358V15.8151C1.9718 15.3409 2.35825 14.9603 2.82667 14.9603H6.3984C6.87268 14.9603 7.25327 15.3467 7.25327 15.8151V25.33C7.25327 25.8043 6.86682 26.1849 6.3984 26.1849H2.82667V26.1907ZM25.2934 18.3505C25.0475 18.6081 25.0007 19.0004 25.188 19.3049C25.188 19.3107 25.4281 19.7206 25.4574 20.2827C25.4984 21.0498 25.1295 21.729 24.3566 22.3087C24.0814 22.5194 23.9701 22.8825 24.0872 23.2104C24.0872 23.2162 24.339 23.9891 23.9291 24.721C23.5368 25.4237 22.6644 25.9272 21.3411 26.2083C20.2813 26.4366 18.8409 26.4776 17.0726 26.3371C17.0492 26.3371 17.0199 26.3371 16.9906 26.3371C13.2257 26.4191 9.41973 25.9272 9.37874 25.9214H9.37288L8.7815 25.8511C8.81663 25.6872 8.8342 25.5115 8.8342 25.3358V15.8151C8.8342 15.5634 8.79321 15.3174 8.72295 15.0891C8.82834 14.6968 9.12111 13.8243 9.81203 13.0807C12.4411 10.9962 15.0115 3.96403 15.1228 3.65956C15.1696 3.5366 15.1813 3.40192 15.1579 3.26725C15.0584 2.61146 15.0935 1.80928 15.234 1.56922C15.5444 1.57507 16.3817 1.6629 16.8852 2.35968C17.4825 3.18528 17.459 4.66081 16.815 6.61648C15.8313 9.59682 15.7493 11.166 16.5281 11.857C16.9145 12.2024 17.4298 12.22 17.8045 12.0853C18.1617 12.0033 18.5013 11.9331 18.8233 11.8804C18.8467 11.8745 18.876 11.8687 18.8994 11.8628C20.697 11.4705 23.9174 11.2304 25.0358 12.2493C25.9843 13.1159 25.311 14.2635 25.2349 14.3864C25.0182 14.7143 25.0826 15.1418 25.3754 15.4053C25.3813 15.4111 25.9961 15.9908 26.0253 16.7696C26.0488 17.2907 25.8028 17.8235 25.2934 18.3505Z" />
</g>
<defs>
<clipPath id="clip0">
<rect width="28" height="28"/>
</clipPath>
</defs>
</svg>
