<svg height="512pt" viewBox="0 0 512.00143 512" width="512pt" xmlns="http://www.w3.org/2000/svg"><path d="m256.023438 0c-.929688 0-1.882813.0078125-2.8125.015625-141.136719 1.550781-254.71875 117.636719-253.195313 258.773437.738281 68.269532 28.085937 132.230469 77.011719 180.105469 48.25 47.210938 111.679687 73.105469 178.902344 73.105469.941406 0 1.890624-.003906 2.832031-.015625 68.277343-.738281 132.246093-28.085937 180.125-77.007813 47.875-48.925781 73.835937-113.464843 73.097656-181.738281-1.527344-140.222656-116.074219-253.238281-255.960937-253.238281zm-158.011719 417.453125c-43.199219-42.269531-67.347657-98.730469-68-158.988281-1.34375-124.601563 98.929687-227.082032 223.527343-228.449219 124.601563-1.308594 227.089844 98.9375 228.449219 223.546875.648438 60.261719-22.273437 117.234375-64.542969 160.429688-42.273437 43.199218-98.742187 67.34375-159.007812 67.996093-60.269531.640625-117.230469-22.269531-160.425781-64.535156zm0 0"/><path d="m256.015625 62.113281c-.703125 0-1.421875.003907-2.128906.011719-106.890625 1.175781-192.917969 89.09375-191.761719 195.984375.558594 51.710937 21.273438 100.152344 58.324219 136.410156 36.542969 35.757813 84.582031 55.367188 135.496093 55.367188.710938 0 1.433594-.003907 2.148438-.011719 51.710938-.558594 100.15625-21.269531 136.417969-58.324219 36.261719-37.050781 55.921875-85.933593 55.363281-137.644531-1.15625-106.199219-87.910156-191.792969-193.859375-191.792969zm-114.582031 310.964844c-31.328125-30.652344-48.835938-71.597656-49.308594-115.292969-.976562-90.351562 71.738281-164.667968 162.089844-165.660156 90.375-.996094 164.675781 71.746094 165.664062 162.109375.46875 43.695313-16.152344 85.011719-46.808594 116.335937-30.65625 31.324219-71.601562 48.835938-115.300781 49.308594-43.726562.496094-85.011719-16.148437-116.335937-46.800781zm0 0"/><path d="m253.25 120.898438c-27.84375 0-52.820312 16.5625-63.628906 42.191406-3.222656 7.632812.355468 16.429687 7.988281 19.648437 7.632813 3.222657 16.433594-.355469 19.652344-7.988281 6.109375-14.488281 20.238281-23.851562 35.988281-23.851562 21.554688 0 39.085938 17.527343 39.085938 39.070312 0 22.078125-11.335938 30.167969-27.027344 41.363281-15.863282 11.316407-35.605469 25.402344-35.605469 56.207031v28.628907c0 8.285156 6.714844 15 15 15 8.28125 0 15-6.714844 15-15v-28.628907c0-14.671874 7.894531-20.988281 23.027344-31.785156 16.714843-11.925781 39.605469-28.257812 39.605469-65.785156 0-38.085938-30.992188-69.070312-69.085938-69.070312zm0 0"/><path d="m260.429688 359.566406c0 8.539063-6.921876 15.460938-15.460938 15.460938s-15.460938-6.921875-15.460938-15.460938c0-8.542968 6.921876-15.464844 15.460938-15.464844s15.460938 6.921876 15.460938 15.464844zm0 0"/></svg>