<svg width="28" height="28" viewBox="0 0 28 28" fill="none" xmlns="http://www.w3.org/2000/svg">
<g clip-path="url(#clip0)">
<path d="M1.20762 8.96445C0.633803 9.69636 0.358605 10.481 0.393736 11.289C0.428868 12.179 0.827027 12.8758 1.15492 13.3032C0.774331 14.2518 0.627948 15.7449 1.89855 16.9042C2.82954 17.7532 4.41047 18.1338 6.60034 18.0284C8.14029 17.9582 9.42845 17.6713 9.48115 17.6596L9.487 17.6596C9.77977 17.6069 10.0901 17.5425 10.4063 17.4722C10.4297 17.8469 10.3653 18.7779 9.67437 20.8741C8.85463 23.3685 8.90148 25.2773 9.82661 26.5537C10.7986 27.8946 12.3502 28 12.807 28C13.2461 28 13.6501 27.8185 13.937 27.4847C14.587 26.7294 14.5108 25.3358 14.4289 24.6918C15.2018 22.619 17.3682 17.5366 19.2009 16.1255C19.2361 16.102 19.2653 16.0728 19.2946 16.0435C19.8333 15.4755 20.1963 14.8607 20.4423 14.322C20.7877 14.5094 21.18 14.6148 21.6016 14.6148L25.1733 14.6148C26.52 14.6148 27.6091 13.5199 27.6091 12.179L27.6091 2.66416C27.6091 1.31744 26.5142 0.228357 25.1733 0.228358L21.6016 0.228358C21.0805 0.228358 20.5945 0.392304 20.1963 0.67336L18.8203 0.509412C18.6095 0.480136 14.8622 0.00585667 11.0152 0.0819774C10.3185 0.0292793 9.66266 1.56893e-06 9.05371 1.62217e-06C8.00561 1.71379e-06 7.09219 0.0819758 6.331 0.245924C4.53928 0.626518 3.31553 1.38771 2.69487 2.50607C2.22059 3.36094 2.22059 4.20996 2.29671 4.74864C1.1315 5.8026 0.926567 6.9678 0.967556 7.78754C0.990977 8.26182 1.09637 8.66583 1.20762 8.96445ZM25.1733 1.80929C25.6476 1.80929 26.0282 2.19573 26.0282 2.66416L26.0282 12.1849C26.0282 12.6591 25.6418 13.0397 25.1733 13.0397L21.6016 13.0397C21.1273 13.0397 20.7467 12.6533 20.7467 12.1849L20.7467 2.67001C20.7467 2.19573 21.1332 1.81514 21.6016 1.81514L25.1733 1.81514L25.1733 1.80929ZM2.70658 9.64952C2.9525 9.39189 2.99934 8.99958 2.81197 8.69511C2.81197 8.68925 2.57191 8.27938 2.54263 7.71728C2.50164 6.95023 2.87052 6.27102 3.64342 5.69135C3.91862 5.48055 4.02987 5.11753 3.91277 4.78963C3.91277 4.78378 3.66099 4.01088 4.07086 3.27897C4.46316 2.57633 5.3356 2.07277 6.6589 1.79172C7.7187 1.56336 9.1591 1.52238 10.9274 1.6629C10.9508 1.6629 10.9801 1.6629 11.0094 1.6629C14.7743 1.58093 18.5803 2.07277 18.6213 2.07863L18.6271 2.07863L19.2185 2.14889C19.1834 2.31284 19.1658 2.4885 19.1658 2.66416L19.1658 12.1849C19.1658 12.4366 19.2068 12.6826 19.2771 12.9109C19.1717 13.3032 18.8789 14.1757 18.188 14.9193C15.5589 17.0038 12.9885 24.036 12.8772 24.3404C12.8304 24.4634 12.8187 24.5981 12.8421 24.7327C12.9416 25.3885 12.9065 26.1907 12.766 26.4308C12.4556 26.4249 11.6183 26.3371 11.1148 25.6403C10.5175 24.8147 10.541 23.3392 11.185 21.3835C12.1687 18.4032 12.2507 16.834 11.4719 16.143C11.0855 15.7976 10.5702 15.78 10.1955 15.9147C9.83832 15.9967 9.49871 16.0669 9.17667 16.1196C9.15325 16.1255 9.12398 16.1313 9.10055 16.1372C7.30298 16.5295 4.08257 16.7696 2.96421 15.7507C2.01565 14.8842 2.68901 13.7365 2.76513 13.6136C2.98177 13.2857 2.91737 12.8582 2.6246 12.5947C2.61875 12.5889 2.00394 12.0092 1.97467 11.2305C1.95124 10.7093 2.19716 10.1765 2.70658 9.64952Z" />
</g>
<defs>
<clipPath id="clip0">
<rect width="28" height="28" transform="translate(28 28) rotate(180)"/>
</clipPath>
</defs>
</svg>
