<?xml version="1.0" encoding="iso-8859-1"?>
<!-- Generator: Adobe Illustrator 19.0.0, SVG Export Plug-In . SVG Version: 6.00 Build 0)  -->
<svg version="1.1" id="Layer_1" xmlns="http://www.w3.org/2000/svg" xmlns:xlink="http://www.w3.org/1999/xlink" x="0px" y="0px"
	 viewBox="0 0 512 512" style="enable-background:new 0 0 512 512;" xml:space="preserve">
<g>
	<g>
		<path d="M492.522,478.609h-50.087v-116.87v-19.801c35.242-9.776,61.217-42.059,61.217-80.373C503.652,258.945,482.945,0,420.174,0
			c-11.204,0-21.044,8.35-29.689,21.918C382.543,9.253,372.39,0,358.957,0c-12.739,0-46.1,0.115-74.291,179.947
			c-5.431,2.756-9.187,8.333-9.187,14.836v50.087h-34.859C234.953,187.295,212.007,0,158.609,0
			c-16.384,0-28.114,14.004-36.964,31.79C111.715,12.396,99.995,0,86.261,0C23.49,0,2.783,258.945,2.783,261.565
			c0,42.25,31.571,77.177,72.348,82.648v134.396H25.044c-9.223,0-16.696,7.479-16.696,16.696c0,9.217,7.473,16.696,16.696,16.696
			c62.713,0,111.609,0,183.652,0v-50.087c0-9.217,7.473-16.696,16.696-16.696s16.696,7.479,16.696,16.696V512h33.391v-50.087
			c0-9.217,7.473-16.696,16.696-16.696c9.223,0,16.696,7.479,16.696,16.696V512h33.391v-50.087c0-9.217,7.473-16.696,16.696-16.696
			c9.223,0,16.696,7.479,16.696,16.696V512c65.289,0,51.131,0,116.87,0c9.223,0,16.696-7.479,16.696-16.696
			C509.217,486.087,501.744,478.609,492.522,478.609z M308.87,211.478h33.033c-1.662,13.339-2.893,24.79-3.739,33.391H308.87
			V211.478z M36.174,261.565c0-42.359,27.696-201.794,50.087-226.479c22.391,24.685,50.087,184.12,50.087,226.479
			c0,27.619-22.468,50.087-50.087,50.087C58.642,311.652,36.174,289.184,36.174,261.565z M141.913,478.609h-33.391V341.938
			c1.726-0.479,3.425-1.01,5.104-1.595c6.765,6.534,14.756,4.7,28.287,4.7V478.609z M225.391,411.157
			c-9.22,0-16.696-7.475-16.696-16.696s7.475-16.696,16.696-16.696s16.696,7.475,16.696,16.696S234.612,411.157,225.391,411.157z
			 M292.174,411.157c-9.22,0-16.696-7.475-16.696-16.696s7.475-16.696,16.696-16.696c9.22,0,16.696,7.475,16.696,16.696
			S301.394,411.157,292.174,411.157z M152.885,311.652c12.358-16.398,10.477-22.258,16.043-33.391h169.449
			c2.518,12.355,7.842,23.667,15.171,33.391C277.104,311.652,229.193,311.652,152.885,311.652z M358.957,411.157
			c-9.22,0-16.696-7.475-16.696-16.696s7.475-16.696,16.696-16.696c9.22,0,16.696,7.475,16.696,16.696
			S368.177,411.157,358.957,411.157z M370.087,261.565c0-42.431,27.733-201.834,50.087-226.479
			c22.391,24.685,50.087,184.12,50.087,226.479c0,27.619-22.468,50.087-50.087,50.087
			C392.555,311.652,370.087,289.184,370.087,261.565z"/>
	</g>
</g>
<g>
</g>
<g>
</g>
<g>
</g>
<g>
</g>
<g>
</g>
<g>
</g>
<g>
</g>
<g>
</g>
<g>
</g>
<g>
</g>
<g>
</g>
<g>
</g>
<g>
</g>
<g>
</g>
<g>
</g>
</svg>
